<svg xmlns="http://www.w3.org/2000/svg" width="743.45" height="743.45" viewBox="0 0 743.45 743.45"><defs><style>.cls-1{fill:#36383c;}.cls-2{fill:#07dcc6;}</style></defs><g><path class="cls-1" d="M634.74,157.81H319.12c-98.19,0-175.34,80.66-175.34,178.85V652.27c45.59-21,101.7-38.57,150.8-28,7-7,14-14,21-24.55-21-80.66,3.5-164.82,63.12-224.44,56.11-52.6,136.77-70.13,210.41-42.08l28.06-28C592.66,252.49,603.18,196.38,634.74,157.81Z" transform="translate(-143.78 -157.81)"/><path class="cls-1" d="M887.23,413.81V736.44c0,98.19-77.15,154.3-168.33,154.3H403.29c17.53-35.07,24.55-87.67,21-126.25l17.53-21C522.52,768,610.19,740,669.81,683.84c59.61-59.62,80.66-147.29,52.6-213.92L747,441.86C803.07,448.88,855.67,438.36,887.23,413.81Z" transform="translate(-143.78 -157.81)"/><path class="cls-1" d="M252.49,818a18.41,18.41,0,0,1-13.06-31.38L776,246.53a18.41,18.41,0,0,1,26.12,26L265.55,812.54A18.34,18.34,0,0,1,252.49,818Z" transform="translate(-143.78 -157.81)"/><circle class="cls-1" cx="645.26" cy="101.7" r="98.19"/><circle class="cls-1" cx="101.7" cy="645.26" r="92.93"/><circle class="cls-2" cx="372.78" cy="379.44" r="126.25"/></g></svg>