<?xml version="1.0" encoding="utf-8" ?><svg xmlns="http://www.w3.org/2000/svg" xmlns:xlink="http://www.w3.org/1999/xlink" width="1024" height="1024" viewBox="0 0 1024 1024"><path fill="#2A2933" d="M381.371 207.742C438.405 207.12 496.494 207.881 553.605 207.835L610.999 207.634C637.222 207.439 658.011 206.254 683.744 212.309C712.373 218.928 738.805 232.833 760.478 252.675C794.079 282.963 814.034 325.53 815.824 370.731C816.526 388.189 815.98 408.596 815.96 426.404L815.902 529.281L815.994 608.363C816.026 635.275 817.629 660.324 811.352 686.635C804.561 714.63 790.593 740.373 770.825 761.327C737.636 796.93 694.954 814.552 646.625 816.304L465.749 816.315L408.942 816.307C383.802 816.328 365.53 817.405 340.709 811.675C311.518 804.861 284.632 790.492 262.747 770.008C228.66 737.501 209.585 695.195 208.993 647.917C208.807 633.055 209.019 618.165 208.969 603.298L208.957 477.63L208.895 414.59C208.795 388.176 207.323 365.752 213.38 339.822C220 310.337 234.515 283.208 255.37 261.34C289.639 225.67 332.371 208.598 381.371 207.742ZM649.625 779.001C719.009 775.668 775.401 722.419 778.254 651.985C778.81 638.242 778.519 624.438 778.51 610.68L778.486 532.363L778.549 428.426C778.58 409.828 779.293 388.515 778.362 370.161C776.402 335.16 760.537 302.393 734.296 279.148C716.463 263.461 694.819 252.739 671.534 248.058C649.764 243.562 617.067 244.555 593.899 244.554L498.705 244.624L419.002 244.548C407.243 244.52 389.232 243.954 377.92 244.658L377.273 244.701C338.462 247.707 303.908 261.943 278.129 292.086C263.694 309.027 253.809 329.363 249.406 351.18C245.38 371.599 246.577 393.585 246.632 414.495L246.542 485.759L246.596 594.1C246.64 614.151 245.96 639.293 247.545 658.905C250.339 693.285 266.863 725.089 293.387 747.14C311.732 762.682 332.021 772.03 355.647 776.674C371.786 779.846 389.636 779.038 406.138 779.027L466.774 779.057L582.42 779.071C604.501 779.093 627.628 779.553 649.625 779.001Z"/><path fill="#2A2933" d="M368.719 446.232C372.863 446.072 377.012 446.361 381.094 447.095C393.422 449.418 406.59 457.329 414.026 467.517C416.397 470.767 418.179 474.768 420.635 478.337L420.99 478.845C437.13 480.097 446.418 477.726 463.451 482.569C494.403 491.369 506.277 506.68 528.217 528.707L588.601 589.323C597.992 598.829 614.716 616.782 624.466 624.726C640.751 617.808 654.875 614.937 672.043 621.197C698.803 630.955 712.558 660.807 702.335 687.394C697.34 700.635 687.158 711.264 674.144 716.822C660.456 722.727 645.464 722.193 631.723 716.831C621.482 712.324 612.925 704.701 607.269 695.048C600.206 682.758 598.217 668.198 601.724 654.464L516.098 568.188C504.083 556.141 491.607 543.217 479.384 531.677C467.154 521.066 451.661 517.628 436.189 516.636C415.465 515.306 423.288 518.505 413.078 531.06C404.113 542.06 391.12 549.017 376.995 550.382C370.603 551.01 362.27 550.627 356.145 548.698C298.962 530.694 306.99 450.951 368.719 446.232ZM655.256 685.773C664.355 684.559 670.727 676.171 669.457 667.08C668.187 657.989 659.76 651.668 650.677 652.993C641.672 654.307 635.417 662.646 636.676 671.659C637.935 680.672 646.235 686.977 655.256 685.773ZM374.246 514.31C382.966 512.533 388.648 504.088 387.008 495.341C385.369 486.593 377.014 480.78 368.242 482.282C362.444 483.276 357.631 487.317 355.65 492.855C353.669 498.394 354.827 504.57 358.68 509.015C362.532 513.461 368.482 515.484 374.246 514.31Z"/><path fill="#2A2933" d="M671.282 419.66L671.942 419.971C672.074 429.512 672.014 439.195 672.04 448.748C684.62 456.506 691.511 459.845 699.239 473.64C705.922 485.642 707.526 499.818 703.694 513.009C695.016 542.562 664.045 556.702 635.189 548.038C598.447 535.542 588.799 488.97 615.135 461.315C620.529 455.65 628.133 452.394 635.007 448.868C635.158 441.3 634.508 427.021 635.347 420.137C649.705 422.642 657.272 422.584 671.282 419.66ZM655.785 514.745C661.66 513.748 666.544 509.669 668.573 504.067C670.601 498.464 669.46 492.204 665.586 487.677C661.711 483.151 655.702 481.057 649.854 482.196C640.962 483.929 635.117 492.489 636.742 501.401C638.366 510.313 646.855 516.261 655.785 514.745Z"/><path fill="#14B775" d="M647.346 302.117C676.413 298.887 702.607 319.801 705.891 348.862C709.175 377.923 688.309 404.155 659.254 407.492C630.124 410.838 603.808 389.906 600.516 360.77C597.223 331.634 618.204 305.357 647.346 302.117ZM653.249 371.332C662.488 371.128 669.811 363.469 669.601 354.23C669.391 344.991 661.727 337.673 652.487 337.89C643.258 338.107 635.949 345.761 636.159 354.991C636.369 364.221 644.018 371.535 653.249 371.332Z"/><defs><linearGradient id="gradient_0" gradientUnits="userSpaceOnUse" x1="660.88672" y1="351.61313" x2="654.43951" y2="363.34109"><stop offset="0" stop-color="white" stop-opacity="0.06666667"/><stop offset="1" stop-color="white" stop-opacity="0.17647059"/></linearGradient></defs><path fill="url(#gradient_0)" d="M653.447 351.592C657.251 351.268 663.483 351.631 665.731 355.341C667.496 358.253 663.921 359.367 661.781 362.948C657.463 364.941 651.621 366.518 651.088 359.251C650.723 354.284 649.37 354.796 653.447 351.592Z"/></svg>